<svg width="64" height="64" viewBox="0 0 64 64" fill="none" xmlns="http://www.w3.org/2000/svg">
<path d="M4.62 9.95996H15.34L21.71 37.85H49.69L56.17 16.35L16.67 15.79" stroke="#AC773C" stroke-width="3"/>
<path d="M51.73 44.35H21.67C21.2366 44.3595 20.8058 44.2812 20.4036 44.1198C20.0013 43.9583 19.6359 43.7171 19.3294 43.4106C19.0229 43.1041 18.7817 42.7387 18.6202 42.3364C18.4588 41.9341 18.3804 41.5033 18.39 41.07C18.39 37.85 21.71 37.85 21.71 37.85" stroke="#AC773C" stroke-width="3"/>
<path d="M24.95 55.14C26.8996 55.14 28.48 53.5595 28.48 51.61C28.48 49.6604 26.8996 48.08 24.95 48.08C23.0004 48.08 21.42 49.6604 21.42 51.61C21.42 53.5595 23.0004 55.14 24.95 55.14Z" stroke="#AC773C" stroke-width="3"/>
<path d="M46.04 55.14C47.9896 55.14 49.57 53.5595 49.57 51.61C49.57 49.6604 47.9896 48.08 46.04 48.08C44.0904 48.08 42.51 49.6604 42.51 51.61C42.51 53.5595 44.0904 55.14 46.04 55.14Z" stroke="#AC773C" stroke-width="3"/>
</svg>
