<svg width="36" height="32" viewBox="0 0 36 32" fill="none" xmlns="http://www.w3.org/2000/svg">
<g clip-path="url(#clip0_26_95)">
<path d="M18 0.5C8.38491 0.5 0.5625 7.45325 0.5625 16C0.5625 24.5467 8.38491 31.5 18 31.5C27.6151 31.5 35.4375 24.5467 35.4375 16C35.4375 7.45325 27.6151 0.5 18 0.5ZM29.5291 7.64787C31.6036 9.90075 32.8598 12.7702 32.8925 15.8951C32.4015 15.8027 27.4772 14.9149 22.5213 15.4689C22.1169 14.5914 21.7351 13.8194 21.2123 12.8681C26.7192 10.8695 29.2151 8.02544 29.5291 7.64787ZM27.8734 6.11688C27.6055 6.45606 25.3634 9.13475 20.0672 10.8993C17.6265 6.91331 14.9214 3.63881 14.5097 3.14881C19.233 2.13675 24.2104 3.22819 27.8734 6.11688ZM11.6677 4.03875C12.0604 4.51744 14.722 7.796 17.1899 11.6956C10.2228 13.3401 4.08642 13.3164 3.42028 13.3086C4.38609 9.20031 7.5008 5.78581 11.6677 4.03875ZM3.1057 16.0202C3.1057 15.8848 3.10873 15.7501 3.1133 15.6156C3.76495 15.6275 10.9827 15.7102 18.4207 13.7315C18.8471 14.4732 19.2544 15.2262 19.6283 15.9783C14.2424 17.3267 9.34903 21.1988 6.93471 24.8724C4.55583 22.5253 3.1057 19.4206 3.1057 16.0202ZM8.85776 26.4648C10.4136 23.6377 14.6359 19.9884 20.6407 18.1675C22.7318 22.9977 23.5965 27.0458 23.818 28.2074C19.0289 30.0207 13.2701 29.5232 8.85776 26.4648ZM26.322 26.9953C26.1693 26.1899 25.3766 22.3143 23.4285 17.5557C28.0958 16.8916 32.1964 17.9788 32.706 18.1217C32.0421 21.8055 29.6634 24.9869 26.322 26.9953Z" fill="black"/>
</g>
<defs>
<clipPath id="clip0_26_95">
<rect width="36" height="32" fill="white"/>
</clipPath>
</defs>
</svg>
