<svg width="37" height="34" viewBox="0 0 37 34" fill="none" xmlns="http://www.w3.org/2000/svg">
<path d="M25.4536 2.49438H11.5464C6.27408 2.49438 2 6.09645 2 10.5398V23.4599C2 27.9033 6.27408 31.5054 11.5464 31.5054H25.4536C30.7259 31.5054 35 27.9033 35 23.4599V10.5398C35 6.09645 30.7259 2.49438 25.4536 2.49438Z" stroke="black" stroke-width="3" stroke-linecap="round"/>
<path d="M18.5 24.0863C23.1465 24.0863 26.9132 20.9118 26.9132 16.9959C26.9132 13.08 23.1465 9.90552 18.5 9.90552C13.8535 9.90552 10.0868 13.08 10.0868 16.9959C10.0868 20.9118 13.8535 24.0863 18.5 24.0863Z" stroke="black" stroke-width="3" stroke-linecap="round"/>
<path d="M28.5722 8.63721C29.2331 8.63721 29.7689 8.18567 29.7689 7.62866C29.7689 7.07166 29.2331 6.62012 28.5722 6.62012C27.9113 6.62012 27.3755 7.07166 27.3755 7.62866C27.3755 8.18567 27.9113 8.63721 28.5722 8.63721Z" stroke="black" stroke-width="3"/>
</svg>
