<svg width="64" height="64" viewBox="0 0 64 64" fill="none" xmlns="http://www.w3.org/2000/svg">
<path d="M28.79 44.0001L19.39 34.6001C19.39 34.6001 31.76 5.41005 56.77 7.00005C56.77 7.00005 60.25 30.1201 28.79 44.0001Z" stroke="#AC773C" stroke-width="3"/>
<path d="M56 16.82C53.724 16.4554 51.6229 15.3768 50 13.74C48.3314 12.076 47.2412 9.92017 46.89 7.58997" stroke="#AC773C" stroke-width="3"/>
<path d="M42.32 26.92C45.3465 26.92 47.8 24.4665 47.8 21.44C47.8 18.4134 45.3465 15.96 42.32 15.96C39.2935 15.96 36.84 18.4134 36.84 21.44C36.84 24.4665 39.2935 26.92 42.32 26.92Z" stroke="#AC773C" stroke-width="3"/>
<path d="M21.49 36.68C14.94 38.78 14.61 49.1501 14.61 49.1501C14.61 49.1501 24.69 49.26 27.2 42.39M30.61 43.16L30 47.84C29.9951 47.8816 30.0011 47.9237 30.0175 47.9622C30.0339 48.0007 30.06 48.0343 30.0934 48.0595C30.1268 48.0848 30.1661 48.1009 30.2076 48.1063C30.2491 48.1116 30.2913 48.106 30.33 48.09L38.33 44.62C38.6577 44.4696 38.9457 44.2449 39.1714 43.9637C39.3971 43.6825 39.5541 43.3525 39.63 43L40.85 37.17L30.61 43.16ZM20 33.2901L15.31 33.89C15.2697 33.8952 15.2287 33.8896 15.1913 33.8737C15.1538 33.8579 15.1212 33.8324 15.0968 33.7999C15.0725 33.7674 15.0571 33.729 15.0524 33.6886C15.0477 33.6482 15.0538 33.6073 15.07 33.57L18.53 25.6201C18.6797 25.2776 18.9095 24.9762 19.2002 24.7412C19.4908 24.5062 19.8338 24.3446 20.2 24.2701L26.02 23.05L20 33.2901Z" stroke="#AC773C" stroke-width="3"/>
<path d="M10.88 52.8199L7.12 56.5899" stroke="#AC773C" stroke-width="3" stroke-linecap="round"/>
<path d="M10.6 45.63L7.41 48.81" stroke="#AC773C" stroke-width="3" stroke-linecap="round"/>
<path d="M17.94 53.11L14.76 56.3" stroke="#AC773C" stroke-width="3" stroke-linecap="round"/>
</svg>
