<svg width="39" height="32" viewBox="0 0 39 32" fill="none" xmlns="http://www.w3.org/2000/svg">
<path d="M35.8238 2.17974C35.8238 2.1095 35.7584 2.06735 35.7004 2.11652C34.5604 3.07178 31.8087 3.84442 31.4602 3.87954C31.4499 3.884 31.4388 3.8863 31.4275 3.8863C31.4162 3.8863 31.4051 3.884 31.3948 3.87954C29.3764 0.760894 24.7224 1.60377 24.7224 1.60377C17.8829 3.00857 18.638 9.69539 18.7687 10.3978C18.7687 10.4329 18.7687 10.461 18.7033 10.461C11.0943 10.8263 4.45083 3.9849 3.69573 3.17714C3.68824 3.16832 3.67882 3.16121 3.66814 3.15633C3.65747 3.15145 3.64582 3.14892 3.63401 3.14892C3.62221 3.14892 3.61055 3.15145 3.59988 3.15633C3.58921 3.16121 3.57979 3.16832 3.5723 3.17714C2.71841 4.70855 2.44764 6.48145 2.80726 8.18631C3.16689 9.89117 4.13406 11.4197 5.53992 12.505C5.55197 12.5118 5.56197 12.5215 5.56891 12.5332C5.57586 12.5449 5.57952 12.5582 5.57952 12.5717C5.57952 12.5852 5.57586 12.5985 5.56891 12.6102C5.56197 12.6219 5.55197 12.6316 5.53992 12.6384C4.5483 12.6084 3.56794 12.4259 2.63568 12.0976C2.59212 12.0976 2.5413 12.0976 2.5413 12.1678C2.64294 16.5227 7.05738 18.4894 8.08112 18.9038C8.09564 18.9084 8.10829 18.9174 8.11726 18.9294C8.12622 18.9413 8.13105 18.9558 8.13105 18.9706C8.13105 18.9853 8.12622 18.9998 8.11726 19.0117C8.10829 19.0237 8.09564 19.0327 8.08112 19.0373C7.16369 19.2307 6.22215 19.2945 5.2858 19.2269C5.27319 19.2265 5.26066 19.2289 5.24921 19.234C5.23777 19.2391 5.22774 19.2468 5.21995 19.2564C5.21216 19.266 5.20683 19.2772 5.20439 19.2892C5.20195 19.3012 5.20248 19.3135 5.20593 19.3253C6.12802 22.6827 10.6514 24.0875 11.4645 24.3193C11.4782 24.3221 11.4908 24.3283 11.5012 24.3373C11.5116 24.3462 11.5193 24.3577 11.5237 24.3705C11.5281 24.3832 11.529 24.3969 11.5263 24.4101C11.5235 24.4233 11.5173 24.4356 11.5081 24.4457C8.71279 26.862 3.20201 27.5012 2.06936 27.6136C2.05431 27.6155 2.04014 27.6215 2.02851 27.631C2.01688 27.6404 2.00828 27.6529 2.00371 27.6669C1.99914 27.6809 1.99878 27.6959 2.0027 27.7101C2.00661 27.7242 2.01462 27.7371 2.0258 27.747C6.25145 30.5566 17.3166 32.8886 25.7679 25.8997C28.2664 23.7931 30.2406 21.1677 31.5431 18.2195C32.8456 15.2712 33.4427 12.0764 33.2898 8.87359C33.2899 8.86189 33.2934 8.85044 33.2998 8.84052C33.3062 8.8306 33.3153 8.82259 33.3261 8.81739C34.8439 7.95502 36.1086 6.73157 37 5.26326C37 5.19302 37 5.15088 36.8911 5.17195C36.1561 5.42178 35.3626 5.46321 34.604 5.29136C34.604 5.29136 35.8456 3.21226 35.8238 2.17974Z" stroke="black" stroke-width="2.42711" stroke-linecap="round"/>
</svg>
